<svg class="svg-icon" style="width: 1em; height: 1em;vertical-align: middle;fill: currentColor;overflow: hidden;" viewBox="0 0 1024 1024" version="1.1" xmlns="http://www.w3.org/2000/svg"><path d="M511.371087 1022.750236c281.962835 0 511.37915-229.408252 511.379149-511.379149C1022.750236 229.408252 793.341984 0 511.371087 0 229.408252 0 0 229.408252 0 511.371087s229.408252 511.37915 511.371087 511.379149z m0-971.655055c253.814929 0 460.283969 206.469039 460.283968 460.275906 0 253.814929-206.469039 460.283969-460.283968 460.283968-253.806866 0-460.275906-206.469039-460.275906-460.283968 0-253.806866 206.469039-460.275906 460.275906-460.275906z m-80.710552 678.017008a25.43874 25.43874 0 0 0 36.08189 0L774.369764 423.145827a25.559685 25.559685 0 0 0 7.506645-18.141733c0-6.676157-2.709165-13.344252-7.506645-18.141732L681.347024 293.436472a25.616126 25.616126 0 0 0-36.08189-0.209637L449.221543 488.222236l-71.325228-71.736441a25.43874 25.43874 0 0 0-36.08189 0L248.396598 509.500472a25.559685 25.559685 0 0 0-7.506645 18.141733c0 6.676157 2.709165 13.344252 7.498582 18.141732l182.280063 183.320189z m-70.905952-258.402772l71.534866 71.946079a25.616126 25.616126 0 0 0 36.08189 0.209638l196.035527-194.995402 56.940851 57.142425-271.327748 269.868347L302.604094 527.642205l57.142426-56.932788z" fill="#20A0FF" /></svg>