<?xml version="1.0" standalone="no"?>
<!DOCTYPE svg PUBLIC "-//W3C//DTD SVG 20010904//EN"
 "http://www.w3.org/TR/2001/REC-SVG-20010904/DTD/svg10.dtd">
<svg version="1.0" xmlns="http://www.w3.org/2000/svg"
 width="700.000000pt" height="700.000000pt" viewBox="0 0 700.000000 700.000000"
 preserveAspectRatio="xMidYMid meet">
<metadata>
Created by potrace 1.14, written by Peter Selinger 2001-2017
</metadata>
<g transform="translate(0.000000,700.000000) scale(0.100000,-0.100000)"
fill="#000000" stroke="none">
<path d="M3357 6823 c-1 -1 -45 -4 -97 -8 -52 -3 -106 -8 -120 -10 -14 -2 -45
-7 -70 -10 -119 -16 -259 -42 -335 -62 -33 -8 -64 -16 -70 -17 -91 -21 -327
-102 -460 -158 -129 -55 -340 -161 -366 -184 -8 -8 -19 -14 -24 -14 -11 0
-225 -142 -303 -201 -581 -443 -988 -1026 -1197 -1714 -19 -63 -37 -125 -39
-137 -37 -170 -58 -277 -66 -343 -6 -44 -13 -91 -15 -105 -23 -128 -23 -608
-1 -740 3 -14 7 -47 11 -75 49 -407 204 -861 422 -1235 190 -325 426 -607 729
-870 112 -98 361 -272 501 -351 275 -155 575 -274 867 -344 129 -30 306 -63
381 -71 17 -1 66 -6 110 -11 152 -15 684 -6 715 12 3 2 33 7 65 10 79 9 307
57 420 89 434 120 909 370 1229 646 439 377 732 773 946 1275 73 170 171 490
195 635 3 19 8 42 10 50 2 8 7 35 10 60 4 25 9 61 12 80 21 138 28 257 28 480
-1 118 -4 253 -9 300 -7 73 -42 300 -61 395 -33 164 -130 471 -176 557 -5 10
-9 23 -9 29 0 15 -161 334 -198 394 -18 28 -35 58 -38 68 -4 9 -10 17 -15 17
-5 0 -9 5 -9 11 0 10 -153 235 -169 249 -3 3 -35 41 -71 85 -166 205 -370 400
-585 558 -49 37 -94 70 -100 74 -31 24 -147 97 -208 132 -119 68 -165 92 -267
140 -183 86 -498 197 -635 225 -11 3 -54 11 -95 20 -166 34 -262 47 -445 62
-78 6 -394 12 -398 7z"/>
</g>
</svg>
